<svg width="40" height="40" viewBox="0 0 40 40" fill="none" xmlns="http://www.w3.org/2000/svg">
<path d="M15.9167 16.0503L18.1667 20.3669C19.1667 18.6169 20.6833 17.1836 22.5 16.2336L21.2167 10.7503L27.7 4.26694C28.6667 3.28361 28.6667 1.66694 27.7 0.730274C26.7333 -0.206393 25.1333 -0.246393 24.1667 0.730274L17.6833 7.21694L2.35 3.68361L0 6.03361L12.3833 12.5003L5.9 19.0003L1.76667 18.4169L0 20.1836L5.3 23.1169L8.25 28.4336L10 26.6669L9.43333 22.5003L15.9167 16.0503ZM27.5 18.3336C31.6667 18.3336 35 21.6669 35 25.8336C35 27.3003 34.5833 28.6836 33.85 29.8336L38.9833 35.0003L36.6667 37.3169L31.4667 32.2003C30.3167 32.9169 28.95 33.3336 27.5 33.3336C23.3333 33.3336 20 30.0003 20 25.8336C20 21.6669 23.3333 18.3336 27.5 18.3336ZM27.5 21.6669C26.3949 21.6669 25.3351 22.1059 24.5537 22.8873C23.7723 23.6687 23.3333 24.7285 23.3333 25.8336C23.3333 26.9387 23.7723 27.9985 24.5537 28.7799C25.3351 29.5613 26.3949 30.0003 27.5 30.0003C28.6051 30.0003 29.6649 29.5613 30.4463 28.7799C31.2277 27.9985 31.6667 26.9387 31.6667 25.8336C31.6667 24.7285 31.2277 23.6687 30.4463 22.8873C29.6649 22.1059 28.6051 21.6669 27.5 21.6669Z" fill="#08AFF5"/>
</svg>
