<svg width="85" height="85" viewBox="0 0 85 85" fill="none" xmlns="http://www.w3.org/2000/svg">
<g clip-path="url(#clip0_1_12842)">
<path fill-rule="evenodd" clip-rule="evenodd" d="M22.287 22.2863C22.9511 21.6223 23.8518 21.2494 24.7909 21.2494C25.73 21.2494 26.6307 21.6223 27.2949 22.2863L42.4992 37.4907L57.7036 22.2863C58.0303 21.948 58.4211 21.6782 58.8532 21.4926C59.2853 21.307 59.7501 21.2093 60.2203 21.2052C60.6906 21.2011 61.1569 21.2907 61.5922 21.4688C62.0275 21.6469 62.4229 21.9099 62.7554 22.2424C63.088 22.5749 63.351 22.9704 63.529 23.4056C63.7071 23.8409 63.7967 24.3073 63.7926 24.7775C63.7885 25.2478 63.6908 25.7125 63.5052 26.1446C63.3196 26.5767 63.0498 26.9675 62.7115 27.2942L45.0032 45.0026C44.339 45.6665 43.4384 46.0395 42.4992 46.0395C41.5601 46.0395 40.6594 45.6665 39.9953 45.0026L22.287 27.2942C21.623 26.6301 21.25 25.7294 21.25 24.7903C21.25 23.8511 21.623 22.9505 22.287 22.2863ZM22.287 43.5363C22.9511 42.8723 23.8518 42.4994 24.7909 42.4994C25.73 42.4994 26.6307 42.8723 27.2949 43.5363L42.4992 58.7407L57.7036 43.5363C58.3716 42.8912 59.2662 42.5342 60.1948 42.5423C61.1234 42.5503 62.0117 42.9228 62.6684 43.5794C63.3251 44.2361 63.6975 45.1244 63.7056 46.053C63.7137 46.9816 63.3567 47.8763 62.7115 48.5442L45.0032 66.2526C44.339 66.9165 43.4384 67.2895 42.4992 67.2895C41.5601 67.2895 40.6594 66.9165 39.9953 66.2526L22.287 48.5442C21.623 47.8801 21.25 46.9794 21.25 46.0403C21.25 45.1011 21.623 44.2005 22.287 43.5363Z" fill="#0283D1"/>
</g>
<defs>
<clipPath id="clip0_1_12842">
<rect width="85" height="85" fill="white"/>
</clipPath>
</defs>
</svg>
