<svg width="50" height="32" viewBox="0 0 50 32" fill="none" xmlns="http://www.w3.org/2000/svg">
<g clip-path="url(#clip0_1_12569)">
<path fill-rule="evenodd" clip-rule="evenodd" d="M36.6507 9.06168V12.6419H22.9114C22.1579 11.2793 21.1696 10.0665 19.9941 9.06168H36.6507ZM43.9137 17.7035H46.2137L45.0032 11.2715L43.9137 17.7035ZM46.6011 1.44452L49.9663 19.1726C50.0562 19.6355 49.9646 20.1158 49.7111 20.5105C49.4576 20.9052 49.0625 21.1828 48.6105 21.2837C48.4979 21.2964 48.3842 21.2964 48.2716 21.2837H43.2359V21.4936C43.1742 21.9177 42.9633 22.3044 42.6425 22.5816C42.3218 22.8587 41.9131 23.0074 41.4927 22.9997H24.2067C24.5224 21.8292 24.6852 20.6212 24.6909 19.4072H40.0643L42.7638 3.59264H14.922L14.45 6.28395C13.5718 6.08409 12.6745 5.98472 11.7747 5.98766C11.5084 5.98766 11.2542 5.98766 11 5.98766L11.7747 1.44452C11.8514 1.03495 12.0667 0.665883 12.3831 0.401847C12.6996 0.137811 13.0969 -0.00439142 13.5058 0.00010338H44.87C45.2783 -0.00198904 45.6744 0.141089 45.9903 0.404718C46.3063 0.668347 46.5223 1.03604 46.6011 1.44452Z" fill="#0283D1"/>
<path fill-rule="evenodd" clip-rule="evenodd" d="M19.2815 15.76L5.33417 26.4997C6.13847 27.3396 7.09855 28.0072 8.15827 28.4634C9.218 28.9196 10.3561 29.1553 11.506 29.1567C13.8572 29.1273 16.101 28.1461 17.7454 26.4284C19.3898 24.7107 20.3005 22.3967 20.2778 19.9938C20.2783 18.5218 19.9368 17.0708 19.2815 15.76ZM3.71832 24.2152L17.6535 13.4754C16.8505 12.6425 15.8935 11.9808 14.8382 11.529C13.7829 11.0771 12.6502 10.844 11.506 10.8432C10.3419 10.8546 9.19133 11.1004 8.12022 11.5666C7.04911 12.0327 6.07845 12.7101 5.26374 13.56C4.44904 14.4099 3.80628 15.4156 3.37224 16.5196C2.93821 17.6235 2.7214 18.8041 2.73423 19.9938C2.72819 21.461 3.0656 22.9084 3.71832 24.2152ZM11.506 8C13.0313 8.01622 14.5385 8.33932 15.9416 8.95086C17.3447 9.5624 18.6162 10.4504 19.6834 11.5641C20.7507 12.6779 21.5928 13.9956 22.1618 15.4419C22.7307 16.8883 23.0153 18.435 22.9992 19.9938C23.0169 21.5536 22.7335 23.1017 22.1653 24.5495C21.5971 25.9973 20.7552 27.3164 19.6878 28.4315C18.6204 29.5465 17.3483 30.4356 15.9445 31.048C14.5406 31.6603 13.0323 31.9838 11.506 32C9.97912 31.9838 8.47032 31.6604 7.06575 31.0482C5.66118 30.436 4.38836 29.5471 3.31997 28.4322C2.25158 27.3173 1.40855 25.9983 0.839019 24.5504C0.269485 23.1025 -0.0153969 21.5542 0.000641407 19.9938C-0.0285072 16.8446 1.16694 13.8123 3.3243 11.5634C5.48166 9.31444 8.42445 8.03277 11.506 8Z" fill="#0283D1"/>
</g>
<defs>
<clipPath id="clip0_1_12569">
<rect width="50" height="32" fill="white"/>
</clipPath>
</defs>
</svg>
