<svg width="40" height="40" viewBox="0 0 40 40" fill="none" xmlns="http://www.w3.org/2000/svg">
<path d="M31.6686 9.99951H8.33529C6.49434 9.99951 5.00195 11.4919 5.00195 13.3328V31.6662C5.00195 33.5071 6.49434 34.9995 8.33529 34.9995H31.6686C33.5096 34.9995 35.002 33.5071 35.002 31.6662V13.3328C35.002 11.4919 33.5096 9.99951 31.6686 9.99951Z" stroke="#08AFF5" stroke-width="1.31101"/>
<path d="M5.00195 16.6662C5.00195 13.5228 5.00195 11.9528 5.97862 10.9762C6.95529 9.99951 8.52529 9.99951 11.6686 9.99951H28.3353C31.4786 9.99951 33.0486 9.99951 34.0253 10.9762C35.002 11.9528 35.002 13.5228 35.002 16.6662H5.00195Z" fill="#08AFF5"/>
<path d="M11.6699 5V10M28.3366 5V10" stroke="#08AFF5" stroke-width="1.31101" stroke-linecap="round"/>
</svg>
