<svg width="37" height="37" viewBox="0 0 37 37" fill="none" xmlns="http://www.w3.org/2000/svg">
<path fill-rule="evenodd" clip-rule="evenodd" d="M24.3338 6C25.1972 6.00003 26.0435 6.23726 26.778 6.68513C27.5125 7.13299 28.1061 7.7738 28.4923 8.53576L30.6406 12.7738C31.0188 12.6208 31.3908 12.4556 31.7565 12.2782C32.1245 12.0969 32.5503 12.0672 32.9404 12.1957C33.3305 12.3242 33.6529 12.6004 33.8366 12.9634C34.0204 13.3264 34.0504 13.7466 33.9202 14.1316C33.79 14.5165 33.5101 14.8346 33.1422 15.0159C32.7697 15.1795 32.3951 15.3386 32.0185 15.4931L33.508 18.4341C33.8313 19.0718 33.9995 19.7751 33.9994 20.4881V24.3529C34.0003 24.9986 33.8627 25.6372 33.5955 26.2266C33.3284 26.816 32.9378 27.343 32.4494 27.7727V29.7059C32.4494 30.3143 32.2044 30.8978 31.7684 31.3281C31.3324 31.7583 30.741 32 30.1244 32C29.5078 32 28.9165 31.7583 28.4804 31.3281C28.0444 30.8978 27.7995 30.3143 27.7995 29.7059V28.9412H9.19987V29.7059C9.19987 30.3143 8.95492 30.8978 8.51891 31.3281C8.0829 31.7583 7.49153 32 6.87492 32C6.2583 32 5.66694 31.7583 5.23093 31.3281C4.79492 30.8978 4.54997 30.3143 4.54997 29.7059V27.7727C3.59829 26.9315 3 25.7111 3 24.3529V20.4866C3.00029 19.7746 3.16851 19.0724 3.49134 18.4356L4.96846 15.5175C4.59492 15.3615 4.22447 15.1964 3.86023 15.0174C3.49418 14.8337 3.21593 14.5155 3.08545 14.1313C2.95498 13.747 2.98274 13.3276 3.16275 12.9634C3.25367 12.7836 3.37961 12.6232 3.53337 12.4915C3.68713 12.3597 3.8657 12.2591 4.05888 12.1955C4.25205 12.1319 4.45604 12.1064 4.65919 12.1206C4.86233 12.1348 5.06065 12.1884 5.2428 12.2782C5.6086 12.4572 5.98214 12.6208 6.35878 12.7738L8.50703 8.53729C8.89305 7.77504 9.48656 7.13392 10.2211 6.68578C10.9556 6.23763 11.802 6.00017 12.6656 6H24.3338ZM11.5248 19.7647C10.9082 19.7647 10.3168 20.0064 9.88083 20.4366C9.44482 20.8669 9.19987 21.4504 9.19987 22.0588C9.19987 22.6673 9.44482 23.2508 9.88083 23.681C10.3168 24.1112 10.9082 24.3529 11.5248 24.3529C12.1414 24.3529 12.7328 24.1112 13.1688 23.681C13.6048 23.2508 13.8498 22.6673 13.8498 22.0588C13.8498 21.4504 13.6048 20.8669 13.1688 20.4366C12.7328 20.0064 12.1414 19.7647 11.5248 19.7647ZM25.4745 19.7647C24.8579 19.7647 24.2666 20.0064 23.8305 20.4366C23.3945 20.8669 23.1496 21.4504 23.1496 22.0588C23.1496 22.6673 23.3945 23.2508 23.8305 23.681C24.2666 24.1112 24.8579 24.3529 25.4745 24.3529C26.0911 24.3529 26.6825 24.1112 27.1185 23.681C27.5545 23.2508 27.7995 22.6673 27.7995 22.0588C27.7995 21.4504 27.5545 20.8669 27.1185 20.4366C26.6825 20.0064 26.0911 19.7647 25.4745 19.7647ZM24.3338 9.05882H12.6656C12.4105 9.05879 12.1593 9.12088 11.9344 9.23961C11.7094 9.35833 11.5176 9.53001 11.376 9.73941L11.2799 9.90459L9.31147 13.7862C11.7108 14.4959 14.9441 15.1765 18.4997 15.1765C21.8197 15.1765 24.8561 14.5831 27.195 13.9269L27.6863 13.7862L25.7194 9.90459C25.6054 9.67948 25.4367 9.48563 25.2286 9.34023C25.0204 9.19483 24.779 9.10237 24.5259 9.07106L24.3353 9.05882H24.3338Z" fill="#08AFF5"/>
</svg>
