<svg width="40" height="40" viewBox="0 0 40 40" fill="none" xmlns="http://www.w3.org/2000/svg">
<g clip-path="url(#clip0_1_12645)">
<path d="M19.998 8.75C19.998 8.41848 19.8664 8.10054 19.6319 7.86612C19.3975 7.6317 19.0796 7.5 18.748 7.5C18.4165 7.5 18.0986 7.6317 17.8642 7.86612C17.6297 8.10054 17.498 8.41848 17.498 8.75V22.5C17.4981 22.7203 17.5564 22.9367 17.6671 23.1273C17.7777 23.3178 17.9367 23.4757 18.128 23.585L26.878 28.585C27.1652 28.7402 27.5016 28.7769 27.8155 28.6873C28.1294 28.5977 28.3957 28.3889 28.5577 28.1055C28.7196 27.8221 28.7643 27.4866 28.6821 27.1707C28.6 26.8548 28.3975 26.5836 28.118 26.415L19.998 21.775V8.75Z" fill="#08AFF5"/>
<path d="M20 40C25.3043 40 30.3914 37.8929 34.1421 34.1421C37.8929 30.3914 40 25.3043 40 20C40 14.6957 37.8929 9.60859 34.1421 5.85786C30.3914 2.10714 25.3043 0 20 0C14.6957 0 9.60859 2.10714 5.85786 5.85786C2.10714 9.60859 0 14.6957 0 20C0 25.3043 2.10714 30.3914 5.85786 34.1421C9.60859 37.8929 14.6957 40 20 40ZM37.5 20C37.5 24.6413 35.6563 29.0925 32.3744 32.3744C29.0925 35.6563 24.6413 37.5 20 37.5C15.3587 37.5 10.9075 35.6563 7.62563 32.3744C4.34374 29.0925 2.5 24.6413 2.5 20C2.5 15.3587 4.34374 10.9075 7.62563 7.62563C10.9075 4.34374 15.3587 2.5 20 2.5C24.6413 2.5 29.0925 4.34374 32.3744 7.62563C35.6563 10.9075 37.5 15.3587 37.5 20Z" fill="#08AFF5"/>
</g>
<defs>
<clipPath id="clip0_1_12645">
<rect width="40" height="40" rx="20" fill="white"/>
</clipPath>
</defs>
</svg>
