<svg width="50" height="50" viewBox="0 0 50 50" fill="none" xmlns="http://www.w3.org/2000/svg">
<g clip-path="url(#clip0_79_6078)">
<path d="M37.539 25.0412C37.5331 23.1933 37.3303 21.351 36.9339 19.5441H42C41.7391 18.7903 41.424 18.0556 41.0571 17.3452H36.3429C35.4566 14.4538 34.0821 11.7272 32.2759 9.27809C31.1219 8.80424 29.9187 8.45404 28.6874 8.23363C31.1618 10.83 33.0296 13.92 34.1616 17.2902H26.5765V8H24.4657V17.304H16.8806C18.0149 13.9277 19.8876 10.8327 22.3689 8.23363C21.1428 8.45036 19.9444 8.79594 18.7945 9.26435C16.9812 11.7032 15.5971 14.4204 14.6994 17.304H9.95693C9.5834 18.0273 9.2636 18.7759 9 19.5441H14.1083C13.7119 21.351 13.5091 23.1933 13.5032 25.0412C13.5071 27.0625 13.7431 29.077 14.2068 31.0469H9.22516C9.51629 31.8172 9.86433 32.5659 10.2665 33.287H14.8119C15.6735 35.9198 16.9507 38.4052 18.5974 40.6532C19.7767 41.1471 21.0086 41.5113 22.2704 41.7389C19.9736 39.2923 18.2073 36.4174 17.0776 33.287H24.4797V42H26.5906V33.287H33.9646C32.8311 36.4187 31.0599 39.2938 28.7578 41.7389C30.0255 41.5034 31.2622 41.13 32.4448 40.6257C34.0889 38.3861 35.3661 35.9102 36.2303 33.287H40.7335C41.1338 32.5792 41.4818 31.8444 41.7748 31.0881H36.7791C37.2649 29.1069 37.5198 27.0784 37.539 25.0412ZM24.4657 31.0469H16.3881C15.3973 27.2646 15.3539 23.305 16.2614 19.5028H24.4657V31.0469ZM34.6542 31.0469H26.5765V19.5441H34.7808C35.1851 21.3495 35.3833 23.1931 35.3719 25.0412C35.3833 27.0642 35.1423 29.0809 34.6542 31.0469Z" fill="white"/>
<path d="M25 3C20.6488 3 16.3953 4.29028 12.7775 6.70767C9.15958 9.12506 6.33979 12.561 4.67466 16.581C3.00953 20.6009 2.57386 25.0244 3.42273 29.292C4.27161 33.5596 6.3669 37.4796 9.44366 40.5563C12.5204 43.6331 16.4404 45.7284 20.708 46.5773C24.9756 47.4261 29.3991 46.9905 33.419 45.3253C37.439 43.6602 40.8749 40.8404 43.2923 37.2225C45.7097 33.6047 47 29.3512 47 25C47 19.1652 44.6822 13.5694 40.5564 9.44365C36.4306 5.31785 30.8348 3 25 3ZM25 44.25C21.1927 44.25 17.4709 43.121 14.3053 41.0058C11.1396 38.8906 8.67231 35.8841 7.21533 32.3666C5.75834 28.8492 5.37713 24.9786 6.11989 21.2445C6.86266 17.5104 8.69604 14.0804 11.3882 11.3882C14.0804 8.69603 17.5104 6.86265 21.2445 6.11988C24.9787 5.37712 28.8492 5.75833 32.3667 7.21532C35.8841 8.6723 38.8906 11.1396 41.0058 14.3053C43.121 17.4709 44.25 21.1927 44.25 25C44.25 30.1054 42.2219 35.0017 38.6118 38.6118C35.0017 42.2219 30.1054 44.25 25 44.25Z" fill="white"/>
</g>
<defs>
<clipPath id="clip0_79_6078">
<rect width="50" height="50" fill="white"/>
</clipPath>
</defs>
</svg>
