<svg width="1728" height="806" viewBox="0 0 1728 806" fill="none" xmlns="http://www.w3.org/2000/svg">
<path fill-rule="evenodd" clip-rule="evenodd" d="M1955.82 796.713C1941.81 800.653 1925.64 803.339 1907.29 804.772C1889.42 806.205 1869.39 806.384 1847.18 805.309C1825.45 804.235 1802.03 802.086 1776.92 798.862C1752.3 795.997 1725.98 792.236 1697.98 787.58C1670.46 782.923 1641.73 777.551 1611.79 771.462C1581.85 765.373 1550.95 758.926 1519.08 752.121C1487.22 745.315 1454.62 738.152 1421.31 730.63C1388.47 723.109 1355.16 715.587 1321.36 708.065C1287.08 700.185 1252.8 692.664 1218.51 685.5C1184.23 677.979 1149.95 670.636 1115.67 663.473C1081.39 656.667 1047.35 650.22 1013.55 644.131C980.231 638.042 947.156 632.67 914.323 628.014C881.49 622.999 849.381 618.88 817.996 615.657C786.611 612.075 755.709 609.031 725.29 606.523C695.354 604.016 665.9 602.046 636.93 600.613C608.442 599.181 580.437 597.927 552.915 596.852C525.393 595.778 498.595 595.062 472.522 594.703C446.448 593.987 421.34 593.271 397.198 592.554C372.573 592.196 348.673 591.659 325.496 590.943C302.803 590.584 280.592 589.868 258.864 588.793C237.619 587.719 217.098 586.466 197.301 585.033C177.505 583.242 158.432 581.272 140.084 579.123C121.736 576.616 104.354 573.571 87.9374 569.989C71.5208 566.408 55.8283 562.289 40.8602 557.633C26.3749 552.618 12.6139 546.887 -0.422836 540.44C-13.4596 534.351 -25.5307 527.367 -36.6361 519.487C-48.2243 511.607 -58.6054 503.19 -67.7794 494.236C-77.4363 485.64 -86.1275 476.327 -93.853 466.298C-101.578 456.27 -108.58 445.883 -114.857 435.137C-120.651 424.392 -125.721 413.289 -130.066 401.827C-134.412 390.366 -137.792 378.725 -140.206 366.905C-143.103 355.086 -144.793 343.087 -145.276 330.909C-146.241 318.731 -146.241 306.553 -145.276 294.375C-144.31 282.197 -142.62 270.019 -140.206 257.842C-137.309 246.022 -133.688 234.202 -129.342 222.382C-124.996 210.563 -119.926 198.922 -114.132 187.461C-107.855 176.357 -100.854 165.433 -93.1287 154.688C-85.4032 143.942 -76.9535 133.735 -67.7794 124.064C-58.6054 114.035 -48.4657 104.185 -37.3603 94.5146C-26.7378 85.2021 -15.391 75.8895 -3.3199 66.577C8.26833 57.6227 20.5808 48.6685 33.6176 39.7141C46.6543 30.4016 60.174 21.2682 74.1764 12.3138C87.696 3.3595 101.698 -5.77399 116.184 -15.0865C130.669 -24.399 145.396 -33.8905 160.364 -43.5612C175.332 -53.2318 190.3 -63.0816 205.268 -73.1105C220.236 -83.4975 235.446 -94.0637 250.897 -104.809C265.865 -115.912 281.075 -127.374 296.526 -139.193C311.494 -151.013 326.22 -163.37 340.706 -176.264C355.674 -189.517 370.159 -203.127 384.162 -217.096C398.647 -231.423 412.649 -246.466 426.169 -262.226C439.688 -277.986 452.967 -294.103 466.003 -310.579C479.04 -327.413 491.836 -344.606 504.389 -362.156C517.426 -379.707 529.98 -397.257 542.051 -414.808C554.605 -432.716 567.159 -450.625 579.713 -468.534C592.267 -486.442 604.579 -504.172 616.65 -521.722C629.204 -539.273 642 -556.465 655.036 -573.299C667.59 -590.133 680.627 -606.609 694.147 -622.727C707.184 -638.487 720.703 -653.53 734.706 -667.857C748.708 -682.184 762.952 -695.795 777.437 -708.689C792.405 -721.225 807.615 -732.866 823.066 -743.611C838.517 -753.998 854.692 -763.31 871.591 -771.548C888.008 -779.428 905.391 -786.054 923.739 -791.427C941.604 -796.799 960.193 -800.56 979.507 -802.709C998.338 -805.216 1017.89 -806.291 1038.17 -805.933C1058.45 -805.575 1078.97 -803.963 1099.73 -801.098C1120.5 -798.59 1141.26 -794.829 1162.02 -789.815C1183.27 -784.801 1204.27 -778.712 1225.03 -771.548C1246.28 -764.743 1267.28 -756.863 1288.04 -747.909C1308.81 -739.313 1329.33 -729.821 1349.61 -719.434C1369.89 -709.047 1389.68 -697.944 1409 -686.124C1428.31 -674.662 1447.14 -662.484 1465.49 -649.59C1483.84 -636.696 1501.22 -623.444 1517.64 -609.833C1534.54 -596.222 1550.47 -582.254 1565.44 -567.927C1580.41 -553.6 1594.41 -538.915 1607.44 -523.871C1620.48 -509.186 1632.31 -494.322 1642.93 -479.279C1653.56 -464.236 1663.21 -449.013 1671.9 -433.612C1680.59 -418.21 1688.56 -402.63 1695.8 -386.87C1702.56 -371.469 1708.6 -355.709 1713.91 -339.591C1719.71 -323.474 1724.78 -307.356 1729.12 -291.238C1733.47 -274.762 1737.57 -258.107 1741.43 -241.273C1745.3 -224.439 1748.68 -207.425 1751.57 -190.233C1754.95 -173.041 1758.09 -155.669 1760.99 -138.119C1763.89 -120.21 1767.02 -102.122 1770.4 -83.8557C1773.78 -65.5888 1777.16 -47.1429 1780.54 -28.5179C1784.41 -9.89294 1788.51 9.26941 1792.86 28.9689C1797.68 48.3103 1802.75 68.0098 1808.07 88.0675C1813.86 108.125 1820.14 128.362 1826.9 148.778C1834.14 169.552 1841.86 190.505 1850.07 211.637C1858.28 233.128 1866.97 254.618 1876.15 276.108C1885.32 297.599 1894.74 318.91 1904.39 340.042C1913.57 361.533 1922.98 382.844 1932.64 403.976C1941.81 425.108 1950.75 445.703 1959.44 465.761C1968.13 486.177 1976.34 506.056 1984.06 525.397C1991.3 544.738 1998.06 563.542 2004.34 581.809C2010.14 599.718 2014.96 616.91 2018.83 633.386C2022.69 649.862 2025.1 665.443 2026.07 680.128C2027.52 694.813 2027.28 708.424 2025.34 720.96C2023.41 733.137 2019.55 744.241 2013.76 754.27C2008.45 763.94 2000.96 772.357 1991.3 779.521C1981.65 786.684 1969.82 792.415 1955.82 796.713Z" fill="#0283D1"/>
</svg>
