<svg width="50" height="50" viewBox="0 0 50 50" fill="none" xmlns="http://www.w3.org/2000/svg">
<g clip-path="url(#clip0_79_6073)">
<path fill-rule="evenodd" clip-rule="evenodd" d="M27 4C15.4017 4 6 13.4017 6 25C6 36.5983 15.4017 46 27 46C38.5983 46 48 36.5983 48 25C48 13.4017 38.5983 4 27 4ZM19.65 19.75C19.65 18.7848 19.8401 17.829 20.2095 16.9373C20.5789 16.0455 21.1203 15.2353 21.8028 14.5528C22.4853 13.8703 23.2955 13.3289 24.1873 12.9595C25.079 12.5901 26.0348 12.4 27 12.4C27.9652 12.4 28.921 12.5901 29.8127 12.9595C30.7045 13.3289 31.5147 13.8703 32.1972 14.5528C32.8797 15.2353 33.4211 16.0455 33.7905 16.9373C34.1599 17.829 34.35 18.7848 34.35 19.75C34.35 21.6993 33.5756 23.5688 32.1972 24.9472C30.8188 26.3256 28.9493 27.1 27 27.1C25.0507 27.1 23.1812 26.3256 21.8028 24.9472C20.4244 23.5688 19.65 21.6993 19.65 19.75ZM40.1418 35.4664C38.5698 37.4438 36.5714 39.0405 34.2958 40.1372C32.0201 41.234 29.5261 41.8024 27 41.8C24.4739 41.8024 21.9799 41.234 19.7042 40.1372C17.4286 39.0405 15.4302 37.4438 13.8582 35.4664C17.2623 33.0241 21.9075 31.3 27 31.3C32.0925 31.3 36.7377 33.0241 40.1418 35.4664Z" fill="white"/>
</g>
<defs>
<clipPath id="clip0_79_6073">
<rect width="50" height="50" fill="white"/>
</clipPath>
</defs>
</svg>
