<svg width="50" height="50" viewBox="0 0 50 50" fill="none" xmlns="http://www.w3.org/2000/svg">
<path d="M24.9997 33.3331C27.2098 33.3331 29.3294 32.4551 30.8922 30.8923C32.455 29.3295 33.333 27.2099 33.333 24.9998C33.333 22.7896 32.455 20.67 30.8922 19.1072C29.3294 17.5444 27.2098 16.6664 24.9997 16.6664C22.7895 16.6664 20.6699 17.5444 19.1071 19.1072C17.5443 20.67 16.6663 22.7896 16.6663 24.9998C16.6663 27.2099 17.5443 29.3295 19.1071 30.8923C20.6699 32.4551 22.7895 33.3331 24.9997 33.3331ZM43.7601 8.33936H6.26009C5.70756 8.33936 5.17765 8.55885 4.78695 8.94955C4.39625 9.34025 4.17676 9.87015 4.17676 10.4227V39.5894C4.17676 40.1419 4.39625 40.6718 4.78695 41.0625C5.17765 41.4532 5.70756 41.6727 6.26009 41.6727H43.7601C44.3126 41.6727 44.8425 41.4532 45.2332 41.0625C45.6239 40.6718 45.8434 40.1419 45.8434 39.5894V10.4227C45.8434 9.87015 45.6239 9.34025 45.2332 8.94955C44.8425 8.55885 44.3126 8.33936 43.7601 8.33936ZM8.34342 32.5956V17.4039C9.50084 17.056 10.5539 16.4265 11.4083 15.5717C12.2627 14.7169 12.8918 13.6636 13.2393 12.506H36.7622C37.1108 13.6665 37.7424 14.7221 38.6003 15.5778C39.4582 16.4335 40.5154 17.0625 41.6768 17.4081V32.5914C40.5136 32.938 39.4551 33.5687 38.5967 34.4267C37.7383 35.2847 37.1071 36.343 36.7601 37.506H13.2393C12.8934 36.3459 12.2648 35.2899 11.4099 34.4328C10.555 33.5757 9.50265 32.9444 8.34342 32.5956Z" fill="#0283D1"/>
<rect x="31.25" y="29.1665" width="18.75" height="14.5833" rx="2" fill="#DAF0FE"/>
<g clip-path="url(#clip0_1_12554)">
<path d="M40.9322 30.563C39.6285 30.5608 37.9952 30.9728 36.3838 31.8114C34.7751 32.65 33.4999 33.7487 32.7514 34.8217C32.0025 35.891 31.8 36.8871 32.1684 37.5975C32.5372 38.3043 33.4695 38.7108 34.7765 38.7108C36.0835 38.7145 37.7168 38.3007 39.3245 37.4657C40.9358 36.6271 42.2103 35.5248 42.9573 34.4555C43.7081 33.3861 43.9058 32.39 43.5396 31.6796C43.1697 30.9728 42.2396 30.563 40.9322 30.563ZM44.2977 33.1371C44.1695 33.6974 43.8912 34.2723 43.4993 34.8327C42.6717 36.0155 41.3204 37.1691 39.6285 38.048C37.9366 38.9305 36.219 39.3737 34.7762 39.3737C34.095 39.3737 33.4637 39.2711 32.9316 39.0551L33.3194 39.8021C33.6885 40.5126 34.6183 40.9191 35.9261 40.9191C37.2335 40.9191 38.8668 40.5089 40.4744 39.6703C42.0857 38.8353 43.3602 37.733 44.1072 36.66C44.8543 35.5907 45.0594 34.5946 44.6895 33.8878L44.2977 33.1371ZM45.3523 33.7523C45.7625 34.7301 45.4329 35.9203 44.6492 37.0372C43.9571 38.0297 42.8987 38.9928 41.5877 39.7985C41.9942 39.8424 42.419 39.8644 42.8511 39.8644C44.6639 39.8644 46.3045 39.4762 47.4617 38.872C48.6226 38.2677 49.2598 37.4767 49.2598 36.6784C49.2598 35.88 48.6226 35.089 47.4617 34.4847C46.8721 34.1771 46.1543 33.9244 45.3523 33.7523ZM49.2598 38.3226C48.8863 38.7584 48.3736 39.143 47.7693 39.4579C46.4876 40.1244 44.7591 40.5236 42.8511 40.5236C42.0748 40.5236 41.3277 40.4576 40.6282 40.3331C39.7786 40.7616 38.9253 41.0802 38.105 41.2889C38.149 41.3146 38.1929 41.3366 38.2405 41.3622C39.3978 41.9664 41.0384 42.3546 42.8511 42.3546C44.6639 42.3546 46.3045 41.9664 47.4617 41.3622C48.6226 40.7579 49.2598 39.9669 49.2598 39.1686V38.3226Z" fill="#0283D1"/>
</g>
<defs>
<clipPath id="clip0_1_12554">
<rect width="18.75" height="18.75" fill="white" transform="translate(31.25 27.0835)"/>
</clipPath>
</defs>
</svg>
