<svg width="253" height="41" viewBox="0 0 253 41" fill="none" xmlns="http://www.w3.org/2000/svg">
<g clip-path="url(#clip0_1_12575)">
<path d="M14.3961 9.08439C14.5337 8.84834 14.7307 8.65248 14.9676 8.51635C15.2045 8.38023 15.4729 8.30859 15.7461 8.30859C16.0193 8.30859 16.2878 8.38023 16.5247 8.51635C16.7615 8.65248 16.9586 8.84834 17.0961 9.08439L20.5899 15.0819L27.3749 16.5519C27.6418 16.6099 27.8888 16.7368 28.0913 16.9201C28.2939 17.1033 28.4448 17.3364 28.5292 17.5962C28.6136 17.8559 28.6283 18.1333 28.5721 18.4005C28.5159 18.6678 28.3905 18.9157 28.2086 19.1194L23.5836 24.2956L24.2836 31.2019C24.3113 31.4738 24.267 31.7483 24.1554 31.9978C24.0438 32.2473 23.8687 32.4632 23.6475 32.6238C23.4264 32.7845 23.167 32.8843 22.8952 32.9134C22.6234 32.9424 22.3487 32.8997 22.0986 32.7894L15.7461 29.9894L9.39364 32.7894C9.14354 32.8997 8.86887 32.9424 8.59708 32.9134C8.32528 32.8843 8.06587 32.7845 7.84473 32.6238C7.62359 32.4632 7.44846 32.2473 7.33685 31.9978C7.22523 31.7483 7.18102 31.4738 7.20864 31.2019L7.90864 24.2956L3.28364 19.1206C3.10142 18.9169 2.97583 18.669 2.9194 18.4015C2.86298 18.1341 2.87769 17.8566 2.96207 17.5966C3.04644 17.3366 3.19754 17.1033 3.40027 16.92C3.603 16.7367 3.85026 16.6098 4.11739 16.5519L10.9024 15.0819L14.3961 9.08439Z" fill="#FEF85D"/>
</g>
<g clip-path="url(#clip1_1_12575)">
<path d="M53.6979 9.08439C53.8355 8.84834 54.0325 8.65248 54.2694 8.51635C54.5063 8.38023 54.7747 8.30859 55.0479 8.30859C55.3211 8.30859 55.5895 8.38023 55.8264 8.51635C56.0633 8.65248 56.2603 8.84834 56.3979 9.08439L59.8916 15.0819L66.6766 16.5519C66.9435 16.6099 67.1906 16.7368 67.3931 16.9201C67.5956 17.1033 67.7466 17.3364 67.831 17.5962C67.9153 17.8559 67.9301 18.1333 67.8739 18.4005C67.8176 18.6678 67.6923 18.9157 67.5104 19.1194L62.8854 24.2956L63.5854 31.2019C63.613 31.4738 63.5688 31.7483 63.4572 31.9978C63.3456 32.2473 63.1704 32.4632 62.9493 32.6238C62.7282 32.7845 62.4687 32.8843 62.197 32.9134C61.9252 32.9424 61.6505 32.8997 61.4004 32.7894L55.0479 29.9894L48.6954 32.7894C48.4453 32.8997 48.1706 32.9424 47.8988 32.9134C47.627 32.8843 47.3676 32.7845 47.1465 32.6238C46.9253 32.4632 46.7502 32.2473 46.6386 31.9978C46.527 31.7483 46.4828 31.4738 46.5104 31.2019L47.2104 24.2956L42.5854 19.1206C42.4032 18.9169 42.2776 18.669 42.2212 18.4015C42.1647 18.1341 42.1794 17.8566 42.2638 17.5966C42.3482 17.3366 42.4993 17.1033 42.702 16.92C42.9048 16.7367 43.152 16.6098 43.4191 16.5519L50.2041 15.0819L53.6979 9.08439Z" fill="#FEF85D"/>
</g>
<g clip-path="url(#clip2_1_12575)">
<path d="M92.9997 9.08439C93.1372 8.84834 93.3343 8.65248 93.5711 8.51635C93.808 8.38023 94.0764 8.30859 94.3497 8.30859C94.6229 8.30859 94.8913 8.38023 95.1282 8.51635C95.365 8.65248 95.5621 8.84834 95.6997 9.08439L99.1934 15.0819L105.978 16.5519C106.245 16.6099 106.492 16.7368 106.695 16.9201C106.897 17.1033 107.048 17.3364 107.133 17.5962C107.217 17.8559 107.232 18.1333 107.176 18.4005C107.119 18.6678 106.994 18.9157 106.812 19.1194L102.187 24.2956L102.887 31.2019C102.915 31.4738 102.871 31.7483 102.759 31.9978C102.647 32.2473 102.472 32.4632 102.251 32.6238C102.03 32.7845 101.771 32.8843 101.499 32.9134C101.227 32.9424 100.952 32.8997 100.702 32.7894L94.3497 29.9894L87.9972 32.7894C87.7471 32.8997 87.4724 32.9424 87.2006 32.9134C86.9288 32.8843 86.6694 32.7845 86.4482 32.6238C86.2271 32.4632 86.052 32.2473 85.9404 31.9978C85.8287 31.7483 85.7845 31.4738 85.8122 31.2019L86.5122 24.2956L81.8872 19.1206C81.7049 18.9169 81.5793 18.669 81.5229 18.4015C81.4665 18.1341 81.4812 17.8566 81.5656 17.5966C81.65 17.3366 81.8011 17.1033 82.0038 16.92C82.2065 16.7367 82.4538 16.6098 82.7209 16.5519L89.5059 15.0819L92.9997 9.08439Z" fill="#FEF85D"/>
</g>
<g clip-path="url(#clip3_1_12575)">
<path d="M132.302 9.08439C132.44 8.84834 132.637 8.65248 132.874 8.51635C133.111 8.38023 133.379 8.30859 133.652 8.30859C133.926 8.30859 134.194 8.38023 134.431 8.51635C134.668 8.65248 134.865 8.84834 135.002 9.08439L138.496 15.0819L145.281 16.5519C145.548 16.6099 145.795 16.7368 145.998 16.9201C146.2 17.1033 146.351 17.3364 146.435 17.5962C146.52 17.8559 146.535 18.1333 146.478 18.4005C146.422 18.6678 146.297 18.9157 146.115 19.1194L141.49 24.2956L142.19 31.2019C142.218 31.4738 142.173 31.7483 142.062 31.9978C141.95 32.2473 141.775 32.4632 141.554 32.6238C141.333 32.7845 141.073 32.8843 140.801 32.9134C140.53 32.9424 140.255 32.8997 140.005 32.7894L133.652 29.9894L127.3 32.7894C127.05 32.8997 126.775 32.9424 126.503 32.9134C126.232 32.8843 125.972 32.7845 125.751 32.6238C125.53 32.4632 125.355 32.2473 125.243 31.9978C125.131 31.7483 125.087 31.4738 125.115 31.2019L125.815 24.2956L121.19 19.1206C121.008 18.9169 120.882 18.669 120.826 18.4015C120.769 18.1341 120.784 17.8566 120.868 17.5966C120.953 17.3366 121.104 17.1033 121.307 16.92C121.509 16.7367 121.757 16.6098 122.024 16.5519L128.809 15.0819L132.302 9.08439Z" fill="#FEF85D"/>
</g>
<path d="M172.953 8.25054C172.579 8.24779 172.212 8.3511 171.895 8.54846C171.578 8.74583 171.323 9.02916 171.16 9.36554L168.383 14.9955L162.168 15.898C161.798 15.9513 161.451 16.107 161.165 16.3475C160.879 16.5881 160.667 16.9038 160.551 17.259C160.436 17.6141 160.422 17.9945 160.511 18.3571C160.601 18.7197 160.79 19.05 161.058 19.3105L165.558 23.693L164.495 29.883C164.432 30.2507 164.473 30.6288 164.613 30.9744C164.754 31.3201 164.988 31.6196 165.29 31.8391C165.591 32.0586 165.949 32.1893 166.321 32.2165C166.693 32.2437 167.065 32.1663 167.395 31.993L172.953 29.0705V8.25054Z" fill="#FEF85D"/>
<path d="M215.579 27.52C215.579 28.528 215.399 29.464 215.039 30.328C214.703 31.168 214.187 31.912 213.491 32.56C212.819 33.184 211.967 33.664 210.935 34C209.903 34.36 208.715 34.54 207.371 34.54C205.811 34.54 204.503 34.324 203.447 33.892C202.415 33.436 201.587 32.872 200.963 32.2C200.339 31.528 199.895 30.796 199.631 30.004C199.367 29.188 199.235 28.42 199.235 27.7C199.235 27.004 199.343 26.344 199.559 25.72C199.799 25.072 200.099 24.472 200.459 23.92C200.843 23.368 201.275 22.876 201.755 22.444C202.259 21.988 202.787 21.592 203.339 21.256C200.987 19.912 199.811 17.932 199.811 15.316C199.811 14.404 199.991 13.54 200.351 12.724C200.711 11.884 201.215 11.152 201.863 10.528C202.535 9.904 203.339 9.412 204.275 9.052C205.211 8.668 206.255 8.476 207.407 8.476C208.751 8.476 209.903 8.68 210.863 9.088C211.823 9.496 212.603 10.024 213.203 10.672C213.827 11.296 214.271 11.992 214.535 12.76C214.823 13.528 214.967 14.272 214.967 14.992C214.967 15.688 214.859 16.348 214.643 16.972C214.451 17.572 214.175 18.136 213.815 18.664C213.479 19.192 213.083 19.66 212.627 20.068C212.195 20.476 211.739 20.836 211.259 21.148C214.091 22.492 215.531 24.616 215.579 27.52ZM202.619 27.736C202.619 28.168 202.691 28.624 202.835 29.104C203.003 29.56 203.279 29.992 203.663 30.4C204.047 30.784 204.539 31.108 205.139 31.372C205.739 31.636 206.495 31.768 207.407 31.768C208.223 31.768 208.931 31.648 209.531 31.408C210.155 31.168 210.659 30.868 211.043 30.508C211.427 30.124 211.715 29.692 211.907 29.212C212.099 28.732 212.195 28.24 212.195 27.736C212.195 26.968 212.051 26.296 211.763 25.72C211.475 25.144 211.055 24.64 210.503 24.208C209.975 23.776 209.327 23.416 208.559 23.128C207.815 22.816 206.963 22.552 206.003 22.336C204.923 22.936 204.083 23.68 203.483 24.568C202.907 25.456 202.619 26.512 202.619 27.736ZM211.619 14.956C211.619 14.596 211.535 14.2 211.367 13.768C211.223 13.336 210.983 12.94 210.647 12.58C210.311 12.196 209.879 11.884 209.351 11.644C208.823 11.38 208.175 11.248 207.407 11.248C206.639 11.248 205.979 11.368 205.427 11.608C204.899 11.848 204.467 12.16 204.131 12.544C203.795 12.904 203.543 13.312 203.375 13.768C203.231 14.2 203.159 14.632 203.159 15.064C203.159 15.592 203.255 16.12 203.447 16.648C203.639 17.176 203.939 17.668 204.347 18.124C204.755 18.58 205.283 18.988 205.931 19.348C206.603 19.708 207.395 19.996 208.307 20.212C209.315 19.612 210.119 18.916 210.719 18.124C211.319 17.308 211.619 16.252 211.619 14.956ZM223.983 29.896C224.007 30.088 224.019 30.28 224.019 30.472C224.019 30.64 224.019 30.82 224.019 31.012C224.019 32.524 223.791 34.012 223.335 35.476C222.903 36.964 222.303 38.38 221.535 39.724L218.943 38.896C219.543 37.672 219.939 36.424 220.131 35.152C220.323 33.904 220.419 32.728 220.419 31.624C220.419 31.312 220.407 31.012 220.383 30.724C220.383 30.436 220.371 30.16 220.347 29.896H223.983ZM227.875 25.36C228.331 24.304 228.955 23.08 229.747 21.688C230.539 20.272 231.427 18.82 232.411 17.332C233.419 15.844 234.487 14.38 235.615 12.94C236.767 11.5 237.919 10.204 239.071 9.052H242.275V24.892H245.227V27.628H242.275V34H239.035V27.628H227.875V25.36ZM239.035 13.012C238.315 13.78 237.583 14.644 236.839 15.604C236.119 16.54 235.411 17.524 234.715 18.556C234.019 19.588 233.359 20.644 232.735 21.724C232.135 22.804 231.595 23.86 231.115 24.892H239.035V13.012Z" fill="white"/>
<defs>
<clipPath id="clip0_1_12575">
<rect width="30" height="30" fill="white" transform="translate(0.745117 5.5)"/>
</clipPath>
<clipPath id="clip1_1_12575">
<rect width="30" height="30" fill="white" transform="translate(40.0469 5.5)"/>
</clipPath>
<clipPath id="clip2_1_12575">
<rect width="30" height="30" fill="white" transform="translate(79.3486 5.5)"/>
</clipPath>
<clipPath id="clip3_1_12575">
<rect width="30" height="30" fill="white" transform="translate(118.651 5.5)"/>
</clipPath>
</defs>
</svg>
