<svg width="40" height="40" viewBox="0 0 40 40" fill="none" xmlns="http://www.w3.org/2000/svg">
<path d="M24.9507 9.86566C24.8386 9.45554 24.569 9.10632 24.2007 8.89405C23.8323 8.68177 23.395 8.62364 22.984 8.73232L17.3173 10.249L9.91732 3.38232L7.86732 3.93232L12.3007 11.5823L6.98398 12.999L4.88398 11.3657L3.33398 11.7823L6.10065 16.5823L23.8007 11.849C24.6673 11.599 25.1673 10.7157 24.9507 9.86566ZM35.0007 16.6657L33.334 19.999H25.0007L23.334 16.6657L25.0007 14.999H28.334V11.6657H30.0007V14.999H33.334L35.0007 16.6657ZM36.6673 33.3323V36.6657H3.33398V33.3323H25.0007V21.6657H33.334V33.3323H36.6673Z" fill="#08AFF5"/>
</svg>
