<svg width="56" height="34" viewBox="0 0 56 34" fill="none" xmlns="http://www.w3.org/2000/svg">
<line x1="1" y1="7.34521" x2="21.8375" y2="7.34521" stroke="#0283D1" stroke-width="2" stroke-linecap="round"/>
<line x1="3.53711" y1="17.2363" x2="19.2996" y2="17.2363" stroke="#0283D1" stroke-width="2" stroke-linecap="round"/>
<line x1="11.1504" y1="27.127" x2="21.8379" y2="27.127" stroke="#0283D1" stroke-width="2" stroke-linecap="round"/>
<path d="M25.3633 16.3997C25.3633 14.0877 25.9583 11.9457 27.1366 9.98506C28.3149 8.02439 29.9133 6.47172 31.9316 5.32706C33.9499 4.18239 36.1433 3.61572 38.5116 3.61572C40.2849 3.61572 41.9883 3.95572 43.6099 4.62439C45.2316 5.29306 46.6199 6.21106 47.7983 7.34439C48.9766 8.47772 49.9099 9.83772 50.5983 11.4244C51.2866 13.0111 51.6366 14.6544 51.6366 16.3997C51.6366 18.1224 51.2866 19.7771 50.5983 21.3524C49.9099 22.9277 48.9649 24.2877 47.7983 25.4211C46.6316 26.5544 45.2316 27.4611 43.6099 28.1297C41.9883 28.7984 40.2966 29.1384 38.5116 29.1384C36.7266 29.1384 35.0116 28.7984 33.3899 28.1297C31.7683 27.4611 30.3683 26.5431 29.1899 25.4097C28.0116 24.2764 27.0899 22.9164 26.3899 21.3524C25.6899 19.7884 25.3633 18.1337 25.3633 16.3997ZM28.2566 16.3997C28.2566 19.0857 29.2599 21.4204 31.2783 23.4037C33.2966 25.3644 35.6999 26.3391 38.5116 26.3391C40.3549 26.3391 42.0699 25.8971 43.6333 25.0017C45.1966 24.1064 46.4566 22.9051 47.3783 21.3751C48.2999 19.8451 48.7666 18.1904 48.7666 16.3997C48.7666 14.6091 48.2999 12.9431 47.3783 11.4131C46.4566 9.88306 45.2083 8.67039 43.6333 7.77506C42.0583 6.87972 40.3549 6.43772 38.5116 6.43772C36.6683 6.43772 34.9533 6.87972 33.3899 7.77506C31.8266 8.67039 30.5666 9.88306 29.6333 11.4131C28.6999 12.9431 28.2566 14.6091 28.2566 16.3997ZM37.4966 16.3997V8.85172C37.4966 8.59106 37.5899 8.36439 37.7766 8.18306C37.9633 8.00172 38.1966 7.91106 38.4649 7.91106C38.7333 7.91106 38.9666 8.00172 39.1533 8.18306C39.3399 8.36439 39.4333 8.59106 39.4333 8.85172V16.1277L41.9416 20.4797C42.0816 20.7177 42.1049 20.9671 42.0349 21.2164C41.9649 21.4657 41.8133 21.6584 41.5799 21.7944C41.4321 21.8676 41.2674 21.9028 41.1016 21.8964C40.7166 21.8964 40.4249 21.7377 40.2499 21.4317L37.6833 17.0117C37.5608 16.8299 37.4959 16.6171 37.4966 16.3997Z" fill="#0283D1"/>
</svg>
